<?xml version="1.0" standalone="no"?><!DOCTYPE svg PUBLIC "-//W3C//DTD SVG 1.1//EN" "http://www.w3.org/Graphics/SVG/1.1/DTD/svg11.dtd"><svg t="1517454335364" class="icon" style="" viewBox="0 0 1024 1024" version="1.1" xmlns="http://www.w3.org/2000/svg" p-id="1445" xmlns:xlink="http://www.w3.org/1999/xlink" width="256" height="256"><defs><style type="text/css"></style></defs><path d="M883.10472607 334.32898693h-151.45458057v94.00629145h151.45458057v-94.00629145z m0 119.64437094h-151.45458057v94.04945309h151.45458057v-94.04945309z m0-239.28874179h-151.45458057v94.00629143h151.45458057V214.68461608z m0 474.30447021h-151.45458057v94.04945317h151.45458057v-94.04945317z m69.61990266-568.31076157h-364.24200782a31.63756271 31.63756271 0 0 0-12.30109873 2.50338149V21.57894682L35.88273627 129.22435122v734.26769012L576.18152218 971.13744574v-96.50967288a31.63756271 31.63756271 0 0 0 12.30109873 2.50338148h364.24200782c18.08477323 0 32.75976822-15.36558297 32.75976821-34.18410595V154.86243066c-0.04316175-18.8616847-14.67499499-34.18410597-32.75976821-34.18410594zM400.16790589 654.89130386l-65.47637465-4.27301326-49.07490972-123.96054586-53.21843767 115.45768111-61.41917019-4.27301321 77.73431164-141.13892237-69.53357917-153.8284768 61.3760084-4.27301327 40.91733898 115.37135767h8.15757073l45.01770524-123.96054589 65.47637464-4.2298515-81.83467789 162.3745033 81.87783966 166.73384008z m544.35599034 179.46655629h-368.38553581v-51.27615895h122.75201687v-94.04945315h-122.75201687v-21.32190448h122.75201687v-94.00629137h-122.75201687v-25.63807949h122.75201687v-94.04945311h-122.75201687v-25.68124122h122.75201687v-94.00629145h-122.75201687v-25.59491768h122.75201687V214.68461608h-122.75201687V163.40845718h368.38553581v670.94940297z m-61.41917016-260.69696971h-151.45458057v94.0062914h151.45458057v-94.0062914z" p-id="1446" data-spm-anchor-id="a313x.7781069.0.i3" class="selected"></path></svg>