<?xml version="1.0" standalone="no"?><!DOCTYPE svg PUBLIC "-//W3C//DTD SVG 1.1//EN" "http://www.w3.org/Graphics/SVG/1.1/DTD/svg11.dtd"><svg t="1517450954549" class="icon" style="" viewBox="0 0 1024 1024" version="1.1" xmlns="http://www.w3.org/2000/svg" p-id="7271" id="mx_n_1517450954553" xmlns:xlink="http://www.w3.org/1999/xlink" width="64" height="64"><defs><style type="text/css"></style></defs><path d="M249.984 756.48l54.485333-16.469333 17.365334 13.354666c19.2 14.805333 40.32 27.008 62.72 36.266667l20.224 8.405333L417.792 853.333333h145.749333l13.013334-55.296 20.181333-8.362666a276.992 276.992 0 0 0 62.762667-36.266667l17.365333-13.397333 54.485333 16.426666 72.874667-126.208-41.386667-38.954666 2.816-21.632a280.32 280.32 0 0 0 0-72.618667l-2.816-21.632 41.386667-38.954667-72.874667-126.208-54.485333 16.426667-17.365333-13.354667a276.992 276.992 0 0 0-62.72-36.266666l-20.224-8.405334L563.541333 213.333333H417.792l-13.013333 55.296-20.181334 8.362667a276.992 276.992 0 0 0-62.762666 36.266667l-17.365334 13.397333L250.026667 310.186667 177.066667 436.437333l41.386666 38.954667-2.816 21.632a280.32 280.32 0 0 0 0 72.618667l2.816 21.632-41.386666 38.954666 72.874666 126.208z m-76.629333-181.333333a322.986667 322.986667 0 0 1 0-83.626667L123.306667 444.373333l106.666666-184.746666 65.877334 19.84a319.658667 319.658667 0 0 1 72.448-41.898667L384 170.666667h213.333333l15.744 66.901333c26.026667 10.794667 50.346667 24.96 72.448 41.898667l65.877334-19.84 106.666666 184.746666-50.090666 47.146667a322.986667 322.986667 0 0 1 0 83.626667l50.090666 47.146666-106.666666 184.746667-65.877334-19.84a319.658667 319.658667 0 0 1-72.448 41.898667L597.333333 896H384l-15.744-66.901333a319.658667 319.658667 0 0 1-72.448-41.898667l-65.877333 19.84-106.666667-184.746667 50.090667-47.146666zM490.666667 640a106.666667 106.666667 0 1 0 0-213.333333 106.666667 106.666667 0 0 0 0 213.333333z m0 42.666667a149.333333 149.333333 0 1 1 0-298.666667 149.333333 149.333333 0 0 1 0 298.666667z" fill="#ffffff" p-id="7272"></path></svg>