<?xml version="1.0" standalone="no"?><!DOCTYPE svg PUBLIC "-//W3C//DTD SVG 1.1//EN" "http://www.w3.org/Graphics/SVG/1.1/DTD/svg11.dtd"><svg t="1517455169774" class="icon" style="" viewBox="0 0 1024 1024" version="1.1" xmlns="http://www.w3.org/2000/svg" p-id="1662" xmlns:xlink="http://www.w3.org/1999/xlink" width="256" height="256"><defs><style type="text/css"></style></defs><path d="M965.31668309 945.72070685L828.33321757 808.57561771c35.61763157-48.44518741 56.69845106-108.23308971 56.69845105-172.86504448 0-161.13629525-130.94177109-292.23736434-291.88504803-292.23736434S301.26622265 474.57311517 301.26622265 635.71057323c0 161.13862087 130.93711986 292.23852601 291.8803968 292.238526 64.55404999 0 124.26986041-21.10640014 172.65807246-56.76705336l136.98462948 137.14509027c8.6358107 8.63929913 19.94712974 12.96243598 31.26426168 12.96243599 11.31829589 0 22.62845099-4.32313799 31.2642617-12.9635988C982.58249045 991.03458531 982.58249045 963.00628195 965.31668309 945.72070685zM593.14661945 856.01734429c-121.33040583 0-220.03468515-98.83102094-220.03468516-220.30677106 0-121.47575011 98.70427933-220.30560825 220.03468516-220.30560825 121.32924302 0 220.0404992 98.82869533 220.0404992 220.30560825C813.18595698 757.18748615 714.47586247 856.01734429 593.14661945 856.01734429z" p-id="1663"></path><path d="M215.28485205 647.81024256c0-206.26645675 167.00357632-373.47816675 373.01306368-373.47816675 126.15701845 0 237.68652914 62.70642631 305.19282347 158.68868721l0-362.29242652C893.4907392 33.19564061 863.07180317 2.71159069 825.54840974 2.71159069L113.67600014 2.71159069C76.15493234 2.71159069 45.73367069 33.16308423 45.73367069 70.72717369l0 882.543327C45.73367069 990.80435939 76.15260672 1021.28840931 113.67600014 1021.28840931l474.62191559 0C382.28842837 1021.28840931 215.28485205 854.07669931 215.28485205 647.81024256zM181.37531278 138.52183325c0-18.75181341 15.18214371-33.95256093 33.91070095-33.95256093l508.65470577 0c18.72739555 0 33.91070094 15.20074752 33.91070095 33.95256093 0 18.75065059-15.18214371 33.95256093-33.91070095 33.95256092L215.28485205 172.47439303C196.5574565 172.47439303 181.37531278 157.2724827 181.37531278 138.52183325z" p-id="1664"></path></svg>