<?xml version="1.0" standalone="no"?><!DOCTYPE svg PUBLIC "-//W3C//DTD SVG 1.1//EN" "http://www.w3.org/Graphics/SVG/1.1/DTD/svg11.dtd"><svg t="1517455159745" class="icon" style="" viewBox="0 0 1024 1024" version="1.1" xmlns="http://www.w3.org/2000/svg" p-id="1406" xmlns:xlink="http://www.w3.org/1999/xlink" width="256" height="256"><defs><style type="text/css"></style></defs><path d="M962.20124101 425.49234768c-67.42774618 77.11204315-236.76080864 131.95977709-435.77863479 131.95977709-4.89590923 0-9.52669701-0.21062425-14.42260622-0.31667284-4.89443632 0.10604857-9.57972129 0.31667283-14.47415761 0.31667284-199.07379622 0-368.30081011-54.84773394-435.67553202-131.90822571-0.94854559 0.99862409-1.89414538 2.00019395-2.78966668 2.94726666v141.33034702c65.58515218 78.6379643 236.81088714 134.90851664 438.51527717 134.90851664 4.84435782 0 9.52964279-0.26512144 14.52865481-0.31519995 4.79133354 0.0500785 9.47367273 0.31519995 14.31803055 0.31519995 201.70291715 0 372.9831493-56.27055233 438.51822299-134.90851664v-141.33034702c-0.79241853-0.99862409-1.89709119-1.94716966-2.7395882-2.99881804zM526.42260622 14.29488889c-4.84435782 0-9.52669701 0.26217565-14.31803055 0.31519992-5.0004849-0.05302429-9.68429698-0.31519995-14.52865481-0.31519992-201.70439005 0-372.93012501 56.26760653-438.51527717 134.96006802v141.27584984c0.8955213 1.05312126 1.89414538 2.00166686 2.78966668 3.00029092 67.48077045 77.06049175 236.70778435 131.96124998 435.72708341 131.96125001 4.84435782 0 9.52964279-0.26217565 14.52865479-0.36822423 4.79133354 0.10604857 9.47367273 0.36822422 14.31803057 0.36822423 199.12387472 0 368.35088861-54.90075823 435.77863477-132.01427428 0.8955213-0.99862409 1.94716966-1.94716966 2.7381153-2.94726665V149.25495691c-65.5350737-78.69246149-236.81530582-134.96006803-438.51822299-134.96006802zM962.20124101 704.73150227c-67.42774618 77.11204315-236.76080864 131.95977709-435.77863479 131.95977709-4.89590923 0-9.52669701-0.21062425-14.42260622-0.31667284-4.89443632 0.10604857-9.57972129 0.31667283-14.47415761 0.31667284-199.07379622 0-368.30081011-54.84626105-435.67553202-131.9067528-0.94854559 0.99862409-1.89414538 1.94569679-2.78966668 2.94726665v141.27584983c65.58515218 78.69246149 236.81088714 134.96154093 438.51527717 134.96154093 4.84435782 0 9.52964279-0.31667283 14.52865481-0.36822422 4.79133354 0.05155138 9.47367273 0.36822422 14.31803055 0.36822422 201.70291715 0 372.9831493-56.26907943 438.51822299-134.96154093v-141.27584983c-0.79241853-1.00156989-1.89709119-2.00313975-2.7395882-3.00029094z" p-id="1407"></path></svg>