<?xml version="1.0" standalone="no"?><!DOCTYPE svg PUBLIC "-//W3C//DTD SVG 1.1//EN" "http://www.w3.org/Graphics/SVG/1.1/DTD/svg11.dtd"><svg t="1517455165231" class="icon" style="" viewBox="0 0 1024 1024" version="1.1" xmlns="http://www.w3.org/2000/svg" p-id="1534" xmlns:xlink="http://www.w3.org/1999/xlink" width="256" height="256"><defs><style type="text/css"></style></defs><path d="M0 127.616C0 57.152 57.28 0 127.616 0h768.768C966.848 0 1024 57.28 1024 127.616v768.768A127.68 127.68 0 0 1 896.384 1024H127.616A127.68 127.68 0 0 1 0 896.384V127.616zM448 384h384V256H448v128z m0 192h384V448H448v128z m0 192h384v-128H448v128zM160 384h192V256h-192v128z m0 192h192V448h-192v128z m0 192h192v-128h-192v128z" p-id="1535"></path></svg>